<svg id="Layer_1" data-name="Layer 1" xmlns="http://www.w3.org/2000/svg" viewBox="0 0 243.49 243.49"><defs><style>.cls-1{fill:#ffffff;}</style></defs><title>pokeball</title><path class="cls-1" d="M124.62,2.77A121.75,121.75,0,1,0,246.36,124.51,121.73,121.73,0,0,0,124.62,2.77ZM241.91,138.92H179.1c-6.27,22.55-23.81,39.71-45,43.64-27.56,5.1-57.33-12.92-67.15-43.64h-60a38.94,38.94,0,0,1,0-29.16H70.87c6.81-26.13,30.82-44.08,57.2-43.18,25,.86,46.86,18.46,53.28,43.18h60.56a32.23,32.23,0,0,1,3.36,18.51A31.17,31.17,0,0,1,241.91,138.92Z" transform="translate(-2.88 -2.77)"/><circle class="cls-1" cx="122.59" cy="122.41" r="34.48"/></svg>